<svg id="Isolation_Mode" preserveAspectRatio="none" data-name="Isolation Mode" xmlns="http://www.w3.org/2000/svg" width="1750" height="81.61" viewBox="0 0 1750 81.61"><defs><style>.cls-1{fill:#1c3646;}</style></defs><title>bottom-video</title><path class="cls-1" d="M0,81.61,353.09,73h0s110.58-1.6,232.4-21.85c2-.36,4.11-.71,6.29-1.06l.4-.07c4.3-.74,8.38-1.32,12.28-1.78,63.22-8.45,167-32.52,270.76-32.51,103.6,0,207.17,24.07,270.33,32.51,3.9.46,8,1,12.28,1.78l.4.07c2.18.35,4.29.7,6.29,1.06C1286.34,71.39,1396.92,73,1396.92,73h0L1750,81.61h0V0H0Z"/></svg>