<svg id="Isolation_Mode" preserveAspectRatio="none" data-name="Isolation Mode" xmlns="http://www.w3.org/2000/svg" width="1750" height="81.61" viewBox="0 0 1750 81.61"><defs><style>.cls-1{fill:#f6f8fa;fill-rule:evenodd;}</style></defs><title>bottom-white</title><path class="cls-1" d="M1750,0,1396.91,8.62h0s-110.58,1.6-232.4,21.85c-2,.36-4.11.71-6.29,1.06l-.4.07c-4.3.74-8.38,1.32-12.28,1.78-63.22,8.45-167,32.52-270.76,32.51-103.6,0-207.17-24.07-270.33-32.51-3.9-.46-8-1-12.28-1.78l-.4-.07c-2.18-.35-4.29-.7-6.29-1.06C463.66,10.22,353.08,8.62,353.08,8.62h0L0,0H0V81.61H1750V0Z"/></svg>