<svg id="Isolation_Mode" preserveAspectRatio="none" data-name="Isolation Mode" xmlns="http://www.w3.org/2000/svg" width="1750" height="78.98" viewBox="0 0 1750 78.98"><defs><style>.cls-1{fill:#f6f8fa;fill-rule:evenodd;}</style></defs><title>top-head-about</title><path class="cls-1" d="M0,65.9l353.09-8.62h0s110.58-1.6,232.4-21.85c2-.36,4.11-.71,6.29-1.06l.4-.07c4.3-.74,8.38-1.32,12.28-1.78C667.68,24.06,771.46,0,875.21,0c103.6,0,207.17,24.07,270.33,32.51,3.9.46,8,1,12.28,1.78l.4.07c2.18.35,4.29.7,6.29,1.06,121.82,20.25,232.4,21.85,232.4,21.85h0L1750,65.9V79H0V65.9Z"/></svg>