<?xml version="1.0" standalone="no"?>
<!DOCTYPE svg PUBLIC "-//W3C//DTD SVG 20010904//EN"
 "http://www.w3.org/TR/2001/REC-SVG-20010904/DTD/svg10.dtd">
<svg version="1.0" xmlns="http://www.w3.org/2000/svg"
 width="152.000000pt" height="152.000000pt" viewBox="0 0 152.000000 152.000000"
 preserveAspectRatio="xMidYMid meet">
<metadata>
Created by potrace 1.11, written by Peter Selinger 2001-2013
</metadata>
<g transform="translate(0.000000,152.000000) scale(0.100000,-0.100000)"
fill="#000000" stroke="none">
<path d="M690 1236 c0 -2 -74 -215 -165 -475 -91 -259 -165 -474 -165 -476 0
-3 31 -5 68 -5 l68 0 35 108 35 107 191 3 190 2 39 -110 38 -110 69 0 c51 0
68 3 65 13 -2 6 -78 222 -168 480 l-163 467 -69 0 c-37 0 -68 -2 -68 -4z m145
-406 l73 -220 -148 0 -147 0 68 213 c38 116 69 218 69 226 0 33 17 -10 85
-219z"/>
</g>
</svg>
